# xmcd
#
# Track frame offsets: 
#        150
#        25913
#        48823
#        73641
#        92947
#        117016
#        144086
#        165104
#        186563
#        209700
#        233225
#        254291
#
# Disc length: 3698 seconds
#
# Revision: 0
# Processed by: cddbd v1.5.2PL0 Copyright (c) Steve Scherf et al.
# Submitted via: ExactAudioCopy v0.99pb5
#
DISCID=a10e700c
DTITLE=Beautiful Bobby Blackmon - Yeah Baby
DYEAR=2011
DGENRE=Blues
TTITLE0=Sleep With One Eye Open
TTITLE1=I Can't Make It Right
TTITLE2=Early One Sunday Morning
TTITLE3=I'll Show You What I Got
TTITLE4=Git It Up
TTITLE5=The Love That Got Away From Me
TTITLE6=I Like Yo Thang
TTITLE7=Where Did You Sleep Last Night
TTITLE8=Let Me Be The One
TTITLE9=I'm Tired Of Sleepin' Alone
TTITLE10=Yeah Baby!
TTITLE11=Hey Joe
EXTD=
EXTT0=
EXTT1=
EXTT2=
EXTT3=
EXTT4=
EXTT5=
EXTT6=
EXTT7=
EXTT8=
EXTT9=
EXTT10=
EXTT11=
PLAYORDER=
